<svg width="25" height="21" viewBox="0 0 25 21" fill="none" xmlns="http://www.w3.org/2000/svg">
<path d="M17.0999 3.62465C17.0998 4.31662 16.8261 4.98049 16.3386 5.47155C15.2162 6.60315 14.1271 7.78305 12.9622 8.87325C12.8321 8.99174 12.6615 9.05577 12.4856 9.05213C12.3097 9.0485 12.1419 8.97746 12.0169 8.8537L8.66119 5.4727C8.1734 4.98133 7.89966 4.31703 7.89966 3.62465C7.89966 2.93227 8.1734 2.26797 8.66119 1.7766C8.90459 1.5314 9.19411 1.33679 9.51306 1.20399C9.83201 1.07119 10.1741 1.00282 10.5196 1.00282C10.8651 1.00282 11.2072 1.07119 11.5261 1.20399C11.8451 1.33679 12.1346 1.5314 12.378 1.7766L12.4999 1.89965L12.6218 1.7766C12.9871 1.4073 13.4541 1.15506 13.9633 1.05201C14.4725 0.948965 15.0008 0.999761 15.481 1.19793C15.9612 1.39611 16.3716 1.7327 16.6599 2.16485C16.9481 2.597 17.1013 3.10516 17.0999 3.62465V3.62465Z" stroke="white" stroke-width="1.5" stroke-linejoin="round"/>
<path d="M19.3999 19.4029L23.7975 15.0053C23.9269 14.8761 23.9997 14.7007 23.9999 14.5177V8.47793C23.9999 8.02043 23.8182 7.58167 23.4947 7.25817C23.1712 6.93467 22.7324 6.75293 22.2749 6.75293V6.75293C21.8174 6.75293 21.3786 6.93467 21.0551 7.25817C20.7316 7.58167 20.5499 8.02043 20.5499 8.47793V13.6529" stroke="white" stroke-width="1.5" stroke-linecap="round" stroke-linejoin="round"/>
<path d="M19.4 14.8023L20.3867 13.8156C20.4385 13.7639 20.4796 13.7024 20.5077 13.6347C20.5357 13.567 20.5501 13.4944 20.55 13.4212C20.5498 13.3178 20.5209 13.2164 20.4665 13.1285C20.4121 13.0406 20.3343 12.9695 20.2418 12.9232L19.7323 12.6691C19.3007 12.4533 18.8122 12.3787 18.3359 12.4559C17.8595 12.5331 17.4195 12.7581 17.0781 13.0992L16.0489 14.1284C15.6175 14.5597 15.3751 15.1446 15.375 15.7545V19.4023" stroke="white" stroke-width="1.5" stroke-linecap="round" stroke-linejoin="round"/>
<path d="M5.6 19.4029L1.2024 15.0053C1.07296 14.8761 1.00016 14.7007 1 14.5177V8.47793C1 8.02043 1.18174 7.58167 1.50524 7.25817C1.82874 6.93467 2.2675 6.75293 2.725 6.75293V6.75293C3.1825 6.75293 3.62126 6.93467 3.94476 7.25817C4.26826 7.58167 4.45 8.02043 4.45 8.47793V13.6529" stroke="white" stroke-width="1.5" stroke-linecap="round" stroke-linejoin="round"/>
<path d="M5.59995 14.8023L4.61325 13.8156C4.56146 13.7638 4.52039 13.7023 4.49237 13.6347C4.46435 13.567 4.44994 13.4944 4.44995 13.4212V13.4212C4.44995 13.2107 4.56955 13.0187 4.75815 12.9232L5.2676 12.6691C5.69921 12.4533 6.18776 12.3787 6.6641 12.4559C7.14044 12.5331 7.58043 12.7581 7.9218 13.0992L8.95105 14.1284C9.38241 14.5597 9.62482 15.1446 9.62495 15.7545V19.4023" stroke="white" stroke-width="1.5" stroke-linecap="round" stroke-linejoin="round"/>
</svg>
